{
	"asset":{
		"generator":"Khronos glTF Blender I/O v3.5.30",
		"version":"2.0"
	},
	"extensionsUsed":[
		"KHR_materials_specular"
	],
	"scene":0,
	"scenes":[
		{
			"name":"Scene",
			"nodes":[
				0
			]
		}
	],
	"nodes":[
		{
			"mesh":0,
			"name":"payphone_obj",
			"rotation":[
				0.7071068286895752,
				0,
				0,
				0.7071068286895752
			],
			"scale":[
				0.1200704574584961,
				0.1200704574584961,
				0.1200704574584961
			]
		}
	],
	"materials":[
		{
			"doubleSided":true,
			"extensions":{
				"KHR_materials_specular":{
					"specularColorFactor":[
						1.2599999904632566,
						1.2599999904632566,
						1.2599999904632566
					]
				}
			},
			"name":"payphone",
			"pbrMetallicRoughness":{
				"baseColorTexture":{
					"index":0
				},
				"metallicFactor":0,
				"roughnessFactor":0.8267949223518372
			}
		}
	],
	"meshes":[
		{
			"name":"payphone_obj",
			"primitives":[
				{
					"attributes":{
						"POSITION":0,
						"TEXCOORD_0":1,
						"NORMAL":2
					},
					"indices":3,
					"material":0
				}
			]
		}
	],
	"textures":[
		{
			"sampler":0,
			"source":0
		}
	],
	"images":[
		{
			"mimeType":"image/png",
			"name":"payphone_diffuse",
			"uri":"payphone_diffuse.png"
		}
	],
	"accessors":[
		{
			"bufferView":0,
			"componentType":5126,
			"count":1564,
			"max":[
				8.612500190734863,
				9.630000114440918,
				0
			],
			"min":[
				-8.612500190734863,
				-8,
				-63.1890983581543
			],
			"type":"VEC3"
		},
		{
			"bufferView":1,
			"componentType":5126,
			"count":1564,
			"type":"VEC2"
		},
		{
			"bufferView":2,
			"componentType":5126,
			"count":1564,
			"type":"VEC3"
		},
		{
			"bufferView":3,
			"componentType":5123,
			"count":4719,
			"type":"SCALAR"
		}
	],
	"bufferViews":[
		{
			"buffer":0,
			"byteLength":18768,
			"byteOffset":0,
			"target":34962
		},
		{
			"buffer":0,
			"byteLength":12512,
			"byteOffset":18768,
			"target":34962
		},
		{
			"buffer":0,
			"byteLength":18768,
			"byteOffset":31280,
			"target":34962
		},
		{
			"buffer":0,
			"byteLength":9438,
			"byteOffset":50048,
			"target":34963
		}
	],
	"samplers":[
		{
			"magFilter":9729,
			"minFilter":9987
		}
	],
	"buffers":[
		{
			"byteLength":59488,
			"uri":"payphone.bin"
		}
	]
}
