<svg xmlns="http://www.w3.org/2000/svg" version="1.1" xmlns:xlink="http://www.w3.org/1999/xlink" xmlns:svgjs="http://svgjs.dev/svgjs" width="212" height="212" viewBox="0 0 212 212"><g transform="matrix(1,0,0,1,-0.9090909090909918,0.2420006270952939)"><svg viewBox="0 0 396 56" data-background-color="#051726" preserveAspectRatio="xMidYMid meet" height="212" width="1500" xmlns="http://www.w3.org/2000/svg" xmlns:xlink="http://www.w3.org/1999/xlink"><g id="tight-bounds" transform="matrix(1,0,0,1,0.2400000000000091,-0.06392469394970135)"><svg viewBox="0 0 395.52 56.12784938789939" height="56.12784938789939" width="395.52"><g><svg viewBox="0 0 494.18471704314663 70.12926114482052" height="56.12784938789939" width="395.52"><g></g><g transform="matrix(1,0,0,1,98.66471704314667,9.69224955040573)"><svg viewBox="0 0 395.52 50.74476204400906" height="50.74476204400906" width="395.52"><g id="textblocktransform"><svg viewBox="0 0 395.52 50.74476204400906" height="50.74476204400906" width="395.52" id="textblock"><g><svg viewBox="0 0 395.52 50.74476204400906" height="50.74476204400906" width="395.52"><g transform="matrix(1,0,0,1,0,0)"><svg width="395.52" viewBox="1.27 -33.94 265.82692307692304 34.28" height="50.74476204400906" data-palette-color="#ffffff"><g class="wordmark-text-0" data-fill-palette-color="primary" id="text-0"></g></svg></g></svg></g></svg></g></svg></g><g><svg viewBox="0 0 70.12926114482052 70.12926114482052" height="70.12926114482052" width="70.12926114482052"><g><svg xmlns="http://www.w3.org/2000/svg" xmlns:xlink="http://www.w3.org/1999/xlink" version="1.1" x="0" y="0" viewBox="2 2 60 60" enable-background="new 0 0 64 64" xml:space="preserve" height="70.12926114482052" width="70.12926114482052" class="icon-icon-0" data-fill-palette-color="accent" id="icon-0"><g fill="#81ffd9" data-fill-palette-color="accent"><path d="M19 9V3c0-0.552-0.448-1-1-1s-1 0.448-1 1v6c0 0.552 0.448 1 1 1S19 9.552 19 9z" fill="#81ffd9" data-fill-palette-color="accent"></path><path d="M26 9V3c0-0.552-0.448-1-1-1s-1 0.448-1 1v6c0 0.552 0.448 1 1 1S26 9.552 26 9z" fill="#81ffd9" data-fill-palette-color="accent"></path><path d="M33 9V3c0-0.552-0.448-1-1-1s-1 0.448-1 1v6c0 0.552 0.448 1 1 1S33 9.552 33 9z" fill="#81ffd9" data-fill-palette-color="accent"></path><path d="M40 9V3c0-0.552-0.448-1-1-1s-1 0.448-1 1v6c0 0.552 0.448 1 1 1S40 9.552 40 9z" fill="#81ffd9" data-fill-palette-color="accent"></path><path d="M47 9V3c0-0.552-0.448-1-1-1s-1 0.448-1 1v6c0 0.552 0.448 1 1 1S47 9.552 47 9z" fill="#81ffd9" data-fill-palette-color="accent"></path><path d="M19 61v-6c0-0.552-0.448-1-1-1s-1 0.448-1 1v6c0 0.552 0.448 1 1 1S19 61.552 19 61z" fill="#81ffd9" data-fill-palette-color="accent"></path><path d="M26 61v-6c0-0.552-0.448-1-1-1s-1 0.448-1 1v6c0 0.552 0.448 1 1 1S26 61.552 26 61z" fill="#81ffd9" data-fill-palette-color="accent"></path><path d="M33 61v-6c0-0.552-0.448-1-1-1s-1 0.448-1 1v6c0 0.552 0.448 1 1 1S33 61.552 33 61z" fill="#81ffd9" data-fill-palette-color="accent"></path><path d="M40 61v-6c0-0.552-0.448-1-1-1s-1 0.448-1 1v6c0 0.552 0.448 1 1 1S40 61.552 40 61z" fill="#81ffd9" data-fill-palette-color="accent"></path><path d="M47 61v-6c0-0.552-0.448-1-1-1s-1 0.448-1 1v6c0 0.552 0.448 1 1 1S47 61.552 47 61z" fill="#81ffd9" data-fill-palette-color="accent"></path><path d="M10 46c0-0.552-0.448-1-1-1H3c-0.552 0-1 0.448-1 1s0.448 1 1 1h6C9.552 47 10 46.552 10 46z" fill="#81ffd9" data-fill-palette-color="accent"></path><path d="M3 40h6c0.552 0 1-0.448 1-1s-0.448-1-1-1H3c-0.552 0-1 0.448-1 1S2.448 40 3 40z" fill="#81ffd9" data-fill-palette-color="accent"></path><path d="M3 33h6c0.552 0 1-0.448 1-1s-0.448-1-1-1H3c-0.552 0-1 0.448-1 1S2.448 33 3 33z" fill="#81ffd9" data-fill-palette-color="accent"></path><path d="M3 26h6c0.552 0 1-0.448 1-1s-0.448-1-1-1H3c-0.552 0-1 0.448-1 1S2.448 26 3 26z" fill="#81ffd9" data-fill-palette-color="accent"></path><path d="M3 19h6c0.552 0 1-0.448 1-1s-0.448-1-1-1H3c-0.552 0-1 0.448-1 1S2.448 19 3 19z" fill="#81ffd9" data-fill-palette-color="accent"></path><path d="M61 24h-6c-0.552 0-1 0.448-1 1s0.448 1 1 1h6c0.552 0 1-0.448 1-1S61.552 24 61 24z" fill="#81ffd9" data-fill-palette-color="accent"></path><path d="M61 17h-6c-0.552 0-1 0.448-1 1s0.448 1 1 1h6c0.552 0 1-0.448 1-1S61.552 17 61 17z" fill="#81ffd9" data-fill-palette-color="accent"></path><path d="M31.29 31.29C31.11 31.48 31 31.74 31 32c0 0.26 0.11 0.52 0.29 0.71C31.48 32.89 31.74 33 32 33c0.26 0 0.52-0.11 0.71-0.29C32.89 32.52 33 32.26 33 32c0-0.26-0.11-0.52-0.29-0.71C32.33 30.92 31.67 30.92 31.29 31.29z" fill="#81ffd9" data-fill-palette-color="accent"></path><path d="M25.29 31.29C25.11 31.48 25 31.73 25 32s0.11 0.52 0.29 0.71C25.48 32.89 25.74 33 26 33c0.26 0 0.52-0.11 0.71-0.29C26.89 32.52 27 32.26 27 32c0-0.26-0.11-0.52-0.29-0.71C26.34 30.92 25.66 30.92 25.29 31.29z" fill="#81ffd9" data-fill-palette-color="accent"></path><path d="M52 26.367V13c0-0.552-0.448-1-1-1H13c-0.552 0-1 0.448-1 1v38c0 0.552 0.448 1 1 1h36c0.007 0 0.013 0 0.02 0 0.002 0 0.003-0.001 0.005-0.001 0.708-0.001 1.428-0.063 2.138-0.183 2.427-0.402 4.676-1.482 6.502-3.12 0.732-0.654 1.37-1.369 1.882-2.107C61.152 44.39 62 41.766 62 39c0-2.748-0.843-5.371-2.439-7.585C57.733 28.88 55.009 27.081 52 26.367zM14 50V14h36v12.04c-0.042-0.003-0.084-0.001-0.127-0.004-0.111-0.008-0.221-0.008-0.332-0.013-0.314-0.013-0.627-0.018-0.938-0.008-0.134 0.004-0.266 0.011-0.399 0.019-0.3 0.018-0.597 0.047-0.892 0.086-0.104 0.014-0.209 0.021-0.313 0.037V18c0-0.552-0.448-1-1-1H28c-0.265 0-0.52 0.105-0.707 0.293l-10 10C17.105 27.48 17 27.735 17 28v18c0 0.552 0.448 1 1 1h20.753c0.167 0.213 0.345 0.431 0.55 0.666 0.385 0.432 0.802 0.831 1.239 1.206 0.146 0.125 0.305 0.23 0.456 0.348 0.303 0.237 0.607 0.471 0.93 0.68 0.048 0.031 0.089 0.07 0.138 0.101H14zM43.538 27.209c-0.078 0.036-0.156 0.071-0.232 0.109-0.445 0.216-0.876 0.458-1.293 0.724-0.072 0.046-0.144 0.094-0.215 0.142-0.418 0.278-0.822 0.578-1.208 0.904-0.049 0.042-0.095 0.086-0.143 0.128-0.401 0.351-0.787 0.721-1.147 1.122-0.477 0.54-0.841 1.016-1.13 1.475C36.75 33.925 36 36.41 36 39c0 0.473 0.034 0.939 0.083 1.402 0.011 0.11 0.023 0.219 0.038 0.328 0.06 0.456 0.137 0.907 0.244 1.349 0.01 0.043 0.024 0.085 0.036 0.128 0.103 0.411 0.23 0.814 0.374 1.211 0.035 0.096 0.068 0.192 0.105 0.288 0.164 0.423 0.347 0.838 0.556 1.243 0.009 0.017 0.014 0.035 0.023 0.051H19V28.414L28.414 19H45v7.629c-0.02 0.006-0.037 0.016-0.057 0.022C44.462 26.809 43.995 26.998 43.538 27.209zM57.919 45.43c-0.436 0.628-0.969 1.225-1.587 1.776-1.544 1.386-3.445 2.298-5.499 2.639-0.939 0.158-1.873 0.193-2.787 0.115-0.045-0.004-0.09-0.013-0.136-0.018-0.367-0.036-0.729-0.094-1.088-0.167-0.107-0.021-0.214-0.044-0.321-0.07-0.396-0.093-0.789-0.201-1.172-0.338-1.736-0.606-3.304-1.654-4.527-3.024-0.258-0.295-0.508-0.6-0.742-0.929-0.109-0.15-0.208-0.307-0.308-0.462-0.066-0.102-0.136-0.203-0.199-0.308-0.083-0.138-0.158-0.28-0.235-0.422-0.057-0.105-0.118-0.209-0.171-0.316-0.073-0.146-0.137-0.296-0.204-0.445-0.047-0.106-0.098-0.212-0.142-0.32-0.063-0.153-0.115-0.31-0.17-0.466-0.039-0.108-0.081-0.215-0.116-0.325-0.05-0.159-0.091-0.32-0.134-0.481-0.03-0.11-0.064-0.219-0.09-0.331-0.04-0.17-0.069-0.343-0.101-0.515-0.02-0.105-0.044-0.209-0.06-0.315-0.03-0.194-0.048-0.39-0.068-0.586-0.009-0.087-0.023-0.173-0.03-0.26C38.011 39.576 38 39.289 38 39c0-2.191 0.633-4.291 1.845-6.095 0.247-0.39 0.55-0.785 0.949-1.237 1.459-1.628 3.346-2.776 5.458-3.32 0.408-0.106 0.826-0.182 1.248-0.24 0.135-0.019 0.272-0.026 0.408-0.04 0.29-0.028 0.581-0.049 0.875-0.055 0.225-0.004 0.45-0.004 0.676 0.006 0.101 0.004 0.2 0.006 0.301 0.013 0.351 0.024 0.703 0.062 1.054 0.121 0.007 0.001 0.014 0.002 0.021 0.003 2.824 0.471 5.413 2.085 7.104 4.428C59.287 34.456 60 36.674 60 39 60 41.339 59.285 43.556 57.919 45.43z" fill="#81ffd9" data-fill-palette-color="accent"></path><path d="M49 30c-0.552 0-1 0.448-1 1v9c0 0.552 0.448 1 1 1s1-0.448 1-1v-9C50 30.448 49.552 30 49 30z" fill="#81ffd9" data-fill-palette-color="accent"></path><path d="M49 44c-0.552 0-1 0.448-1 1v1c0 0.552 0.448 1 1 1s1-0.448 1-1v-1C50 44.448 49.552 44 49 44z" fill="#81ffd9" data-fill-palette-color="accent"></path></g></svg></g></svg></g></svg></g><defs></defs></svg><rect width="395.52" height="56.12784938789939" fill="none" stroke="none" visibility="hidden"></rect></g></svg></g></svg>