<svg id="visual" viewBox="0 0 900 600" width="900" height="600" xmlns="http://www.w3.org/2000/svg" xmlns:xlink="http://www.w3.org/1999/xlink" version="1.1"><g stroke-width="1" stroke-linejoin="bevel"><path d="M414 321L304 363L362 392Z" fill="#003e30" stroke="#003e30"></path><path d="M414 321L280 291L304 363Z" fill="#004436" stroke="#004436"></path><path d="M414 321L337 219L280 291Z" fill="#000000" stroke="#000000"></path><path d="M280 291L230 379L304 363Z" fill="#00281c" stroke="#00281c"></path><path d="M304 363L293 533L362 392Z" fill="#003326" stroke="#003326"></path><path d="M419 481L462 438L362 392Z" fill="#002217" stroke="#002217"></path><path d="M362 392L462 438L414 321Z" fill="#00281c" stroke="#00281c"></path><path d="M462 438L499 270L414 321Z" fill="#001e11" stroke="#001e11"></path><path d="M414 321L428 172L337 219Z" fill="#000000" stroke="#000000"></path><path d="M293 533L419 481L362 392Z" fill="#001e11" stroke="#001e11"></path><path d="M499 270L428 172L414 321Z" fill="#00392b" stroke="#00392b"></path><path d="M236 180L182 286L280 291Z" fill="#001909" stroke="#001909"></path><path d="M280 291L182 286L230 379Z" fill="#003326" stroke="#003326"></path><path d="M236 180L280 291L337 219Z" fill="#003e30" stroke="#003e30"></path><path d="M332 99L236 180L337 219Z" fill="#001400" stroke="#001400"></path><path d="M499 270L501 198L428 172Z" fill="#001e11" stroke="#001e11"></path><path d="M183 491L293 533L230 379Z" fill="#001400" stroke="#001400"></path><path d="M230 379L293 533L304 363Z" fill="#000000" stroke="#000000"></path><path d="M419 481L479 509L462 438Z" fill="#001909" stroke="#001909"></path><path d="M462 438L590 390L499 270Z" fill="#00392b" stroke="#00392b"></path><path d="M410 600L479 509L419 481Z" fill="#000000" stroke="#000000"></path><path d="M133 196L136 313L182 286Z" fill="#002217" stroke="#002217"></path><path d="M182 286L136 313L230 379Z" fill="#003326" stroke="#003326"></path><path d="M136 313L137 377L230 379Z" fill="#003326" stroke="#003326"></path><path d="M521 109L423 111L428 172Z" fill="#004436" stroke="#004436"></path><path d="M428 172L332 99L337 219Z" fill="#001909" stroke="#001909"></path><path d="M137 377L183 491L230 379Z" fill="#000000" stroke="#000000"></path><path d="M423 111L332 99L428 172Z" fill="#00392b" stroke="#00392b"></path><path d="M575 479L590 390L462 438Z" fill="#003e30" stroke="#003e30"></path><path d="M499 270L588 224L501 198Z" fill="#004436" stroke="#004436"></path><path d="M636 328L588 224L499 270Z" fill="#002217" stroke="#002217"></path><path d="M501 198L521 109L428 172Z" fill="#003e30" stroke="#003e30"></path><path d="M236 180L133 196L182 286Z" fill="#003e30" stroke="#003e30"></path><path d="M0 365L108 500L137 377Z" fill="#00392b" stroke="#00392b"></path><path d="M185 123L133 196L236 180Z" fill="#000000" stroke="#000000"></path><path d="M479 509L575 479L462 438Z" fill="#004436" stroke="#004436"></path><path d="M216 600L337 600L293 533Z" fill="#002d21" stroke="#002d21"></path><path d="M293 533L337 600L419 481Z" fill="#002217" stroke="#002217"></path><path d="M479 509L496 600L575 479Z" fill="#001909" stroke="#001909"></path><path d="M332 99L185 123L236 180Z" fill="#00392b" stroke="#00392b"></path><path d="M337 600L410 600L419 481Z" fill="#004436" stroke="#004436"></path><path d="M588 224L521 109L501 198Z" fill="#002d21" stroke="#002d21"></path><path d="M423 111L397 0L332 99Z" fill="#001e11" stroke="#001e11"></path><path d="M688 462L636 328L590 390Z" fill="#001909" stroke="#001909"></path><path d="M590 390L636 328L499 270Z" fill="#003326" stroke="#003326"></path><path d="M0 365L137 377L136 313Z" fill="#001909" stroke="#001909"></path><path d="M137 377L108 500L183 491Z" fill="#003326" stroke="#003326"></path><path d="M183 491L216 600L293 533Z" fill="#00281c" stroke="#00281c"></path><path d="M119 600L216 600L183 491Z" fill="#00392b" stroke="#00392b"></path><path d="M410 600L496 600L479 509Z" fill="#00281c" stroke="#00281c"></path><path d="M517 0L397 0L423 111Z" fill="#002d21" stroke="#002d21"></path><path d="M332 99L275 0L185 123Z" fill="#001e11" stroke="#001e11"></path><path d="M588 224L620 122L521 109Z" fill="#002d21" stroke="#002d21"></path><path d="M521 109L517 0L423 111Z" fill="#00392b" stroke="#00392b"></path><path d="M709 208L620 122L588 224Z" fill="#003326" stroke="#003326"></path><path d="M397 0L275 0L332 99Z" fill="#002d21" stroke="#002d21"></path><path d="M183 0L131 67L185 123Z" fill="#003326" stroke="#003326"></path><path d="M185 123L131 67L133 196Z" fill="#003e30" stroke="#003e30"></path><path d="M133 196L0 316L136 313Z" fill="#001909" stroke="#001909"></path><path d="M739 434L701 290L636 328Z" fill="#002217" stroke="#002217"></path><path d="M636 328L701 290L588 224Z" fill="#003e30" stroke="#003e30"></path><path d="M688 462L590 390L575 479Z" fill="#002d21" stroke="#002d21"></path><path d="M0 171L0 316L133 196Z" fill="#00281c" stroke="#00281c"></path><path d="M602 600L688 462L575 479Z" fill="#003e30" stroke="#003e30"></path><path d="M0 316L0 365L136 313Z" fill="#003326" stroke="#003326"></path><path d="M108 500L119 600L183 491Z" fill="#00392b" stroke="#00392b"></path><path d="M0 526L119 600L108 500Z" fill="#001909" stroke="#001909"></path><path d="M496 600L602 600L575 479Z" fill="#003326" stroke="#003326"></path><path d="M570 0L517 0L521 109Z" fill="#002217" stroke="#002217"></path><path d="M275 0L183 0L185 123Z" fill="#00392b" stroke="#00392b"></path><path d="M701 290L709 208L588 224Z" fill="#00281c" stroke="#00281c"></path><path d="M620 122L570 0L521 109Z" fill="#003326" stroke="#003326"></path><path d="M804 203L709 208L701 290Z" fill="#00281c" stroke="#00281c"></path><path d="M131 67L0 171L133 196Z" fill="#00392b" stroke="#00392b"></path><path d="M0 65L0 171L131 67Z" fill="#003326" stroke="#003326"></path><path d="M687 0L570 0L620 122Z" fill="#001400" stroke="#001400"></path><path d="M823 486L739 434L688 462Z" fill="#00392b" stroke="#00392b"></path><path d="M688 462L739 434L636 328Z" fill="#003e30" stroke="#003e30"></path><path d="M0 365L0 526L108 500Z" fill="#001909" stroke="#001909"></path><path d="M183 0L119 0L131 67Z" fill="#000000" stroke="#000000"></path><path d="M602 600L684 600L688 462Z" fill="#00392b" stroke="#00392b"></path><path d="M804 203L714 85L709 208Z" fill="#001e11" stroke="#001e11"></path><path d="M709 208L714 85L620 122Z" fill="#002d21" stroke="#002d21"></path><path d="M795 412L796 335L739 434Z" fill="#003e30" stroke="#003e30"></path><path d="M739 434L796 335L701 290Z" fill="#003326" stroke="#003326"></path><path d="M0 526L0 600L119 600Z" fill="#000000" stroke="#000000"></path><path d="M119 0L0 65L131 67Z" fill="#001909" stroke="#001909"></path><path d="M823 486L795 412L739 434Z" fill="#00281c" stroke="#00281c"></path><path d="M796 335L804 203L701 290Z" fill="#001e11" stroke="#001e11"></path><path d="M900 269L804 203L796 335Z" fill="#00281c" stroke="#00281c"></path><path d="M809 0L687 0L714 85Z" fill="#001909" stroke="#001909"></path><path d="M714 85L687 0L620 122Z" fill="#002d21" stroke="#002d21"></path><path d="M119 0L0 0L0 65Z" fill="#002d21" stroke="#002d21"></path><path d="M785 600L823 486L688 462Z" fill="#001400" stroke="#001400"></path><path d="M900 424L900 269L796 335Z" fill="#002217" stroke="#002217"></path><path d="M684 600L785 600L688 462Z" fill="#00281c" stroke="#00281c"></path><path d="M900 122L813 100L804 203Z" fill="#001400" stroke="#001400"></path><path d="M804 203L813 100L714 85Z" fill="#002d21" stroke="#002d21"></path><path d="M900 424L795 412L823 486Z" fill="#003e30" stroke="#003e30"></path><path d="M900 424L796 335L795 412Z" fill="#004436" stroke="#004436"></path><path d="M900 517L900 424L823 486Z" fill="#003326" stroke="#003326"></path><path d="M900 269L900 239L804 203Z" fill="#001400" stroke="#001400"></path><path d="M900 0L809 0L813 100Z" fill="#003e30" stroke="#003e30"></path><path d="M813 100L809 0L714 85Z" fill="#003326" stroke="#003326"></path><path d="M785 600L900 517L823 486Z" fill="#001909" stroke="#001909"></path><path d="M900 239L900 122L804 203Z" fill="#002d21" stroke="#002d21"></path><path d="M785 600L900 600L900 517Z" fill="#001e11" stroke="#001e11"></path><path d="M900 122L900 0L813 100Z" fill="#003e30" stroke="#003e30"></path></g></svg>