<svg id="visual" viewBox="0 0 960 540" width="960" height="540" xmlns="http://www.w3.org/2000/svg" xmlns:xlink="http://www.w3.org/1999/xlink" version="1.1"><path d="M0 98L87 98L87 152L175 152L175 87L262 87L262 152L349 152L349 190L436 190L436 82L524 82L524 201L611 201L611 98L698 98L698 136L785 136L785 109L873 109L873 179L960 179L960 201L960 0L960 0L873 0L873 0L785 0L785 0L698 0L698 0L611 0L611 0L524 0L524 0L436 0L436 0L349 0L349 0L262 0L262 0L175 0L175 0L87 0L87 0L0 0Z" fill="#3d3d3d"></path><path d="M0 352L87 352L87 287L175 287L175 352L262 352L262 287L349 287L349 379L436 379L436 255L524 255L524 309L611 309L611 368L698 368L698 320L785 320L785 255L873 255L873 336L960 336L960 276L960 199L960 177L873 177L873 107L785 107L785 134L698 134L698 96L611 96L611 199L524 199L524 80L436 80L436 188L349 188L349 150L262 150L262 85L175 85L175 150L87 150L87 96L0 96Z" fill="#2f2f2f"></path><path d="M0 406L87 406L87 390L175 390L175 390L262 390L262 363L349 363L349 422L436 422L436 368L524 368L524 422L611 422L611 406L698 406L698 374L785 374L785 325L873 325L873 374L960 374L960 325L960 274L960 334L873 334L873 253L785 253L785 318L698 318L698 366L611 366L611 307L524 307L524 253L436 253L436 377L349 377L349 285L262 285L262 350L175 350L175 285L87 285L87 350L0 350Z" fill="#212121"></path><path d="M0 482L87 482L87 449L175 449L175 487L262 487L262 460L349 460L349 509L436 509L436 487L524 487L524 487L611 487L611 503L698 503L698 509L785 509L785 449L873 449L873 465L960 465L960 476L960 323L960 372L873 372L873 323L785 323L785 372L698 372L698 404L611 404L611 420L524 420L524 366L436 366L436 420L349 420L349 361L262 361L262 388L175 388L175 388L87 388L87 404L0 404Z" fill="#141414"></path><path d="M0 541L87 541L87 541L175 541L175 541L262 541L262 541L349 541L349 541L436 541L436 541L524 541L524 541L611 541L611 541L698 541L698 541L785 541L785 541L873 541L873 541L960 541L960 541L960 474L960 463L873 463L873 447L785 447L785 507L698 507L698 501L611 501L611 485L524 485L524 485L436 485L436 507L349 507L349 458L262 458L262 485L175 485L175 447L87 447L87 480L0 480Z" fill="#000000"></path></svg>