<svg xmlns="http://www.w3.org/2000/svg" version="1.1" xmlns:xlink="http://www.w3.org/1999/xlink" xmlns:svgjs="http://svgjs.dev/svgjs" width="1500" height="1500" viewBox="0 0 1500 1500"><rect width="1500" height="1500" fill="#051726"></rect><g transform="matrix(0.6666666666666666,0,0,0.6666666666666666,249.39393939393938,679.4946670847303)"><svg viewBox="0 0 396 56" data-background-color="#051726" preserveAspectRatio="xMidYMid meet" height="212" width="1500" xmlns="http://www.w3.org/2000/svg" xmlns:xlink="http://www.w3.org/1999/xlink"><g id="tight-bounds" transform="matrix(1,0,0,1,0.2400000000000091,-0.06392469394970135)"><svg viewBox="0 0 395.52 56.12784938789939" height="56.12784938789939" width="395.52"><g><svg viewBox="0 0 494.18471704314663 70.12926114482052" height="56.12784938789939" width="395.52"><g><rect width="4.576215009723167" height="50.998485854229095" x="82.108881589122" y="9.565387645295711" fill="#ffffff" opacity="1" stroke-width="0" stroke="transparent" fill-opacity="1" class="rect-qz-0" data-fill-palette-color="primary" rx="1%" id="qz-0" data-palette-color="#ffffff"></rect></g><g transform="matrix(1,0,0,1,98.66471704314667,9.69224955040573)"><svg viewBox="0 0 395.52 50.74476204400906" height="50.74476204400906" width="395.52"><g id="textblocktransform"><svg viewBox="0 0 395.52 50.74476204400906" height="50.74476204400906" width="395.52" id="textblock"><g><svg viewBox="0 0 395.52 50.74476204400906" height="50.74476204400906" width="395.52"><g transform="matrix(1,0,0,1,0,0)"><svg width="395.52" viewBox="1.27 -33.94 265.82692307692304 34.28" height="50.74476204400906" data-palette-color="#ffffff"><g class="wordmark-text-0" data-fill-palette-color="primary" id="text-0"><path d="M8.59-32.18L8.59-32.18Q10.01-32.18 11.69-32.25 13.38-32.32 14.84-32.32L14.84-32.32Q17.72-32.32 20.26-31.54 22.8-30.76 24.71-28.64 26.61-26.51 26.61-23.39L26.61-23.39Q26.61-19.43 23.56-16.55 20.51-13.67 16.16-13.67L16.16-13.67Q15.38-13.67 14.6-13.92 13.82-14.16 13.43-14.38 13.04-14.6 12.94-14.75L12.94-14.75Q12.74-15.04 12.7-15.82 12.65-16.6 12.89-16.6L12.89-16.6Q13.53-16.21 15.09-16.21L15.09-16.21Q19.19-16.21 19.19-22.85L19.19-22.85Q19.19-29.54 14.7-29.54L14.7-29.54Q12.99-29.54 12.45-29.15L12.45-29.15Q11.87-28.71 11.87-24.37L11.87-24.37 11.87-6.88Q11.87-4.39 12.21-2.88L12.21-2.88Q12.35-2.29 13.82-1.95 15.28-1.61 16.02-1.61L16.02-1.61Q16.21-1.61 16.21-0.68L16.21-0.68Q16.21-0.1 16.11 0.2L16.11 0.2Q10.25-0.1 8.64-0.1L8.64-0.1 1.51 0.2Q1.32 0 1.32-0.63L1.32-0.63Q1.32-1.61 1.51-1.61L1.51-1.61Q2.1-1.61 3.34-1.95 4.59-2.29 4.74-2.69L4.74-2.69Q5.03-3.81 5.03-6.98L5.03-6.98 5.03-25.44Q5.03-28.13 4.74-29.25L4.74-29.25Q4.59-29.64 3.3-30.13 2-30.62 1.46-30.62L1.46-30.62Q1.27-30.62 1.27-31.49L1.27-31.49Q1.27-32.28 1.42-32.42L1.42-32.42Q5.81-32.18 8.59-32.18ZM39.55-19.14L39.55-19.14Q37.64-19.14 36.77-17.31 35.89-15.48 35.89-13.72L35.89-13.72Q35.89-13.43 36.23-13.43L36.23-13.43 42.43-13.43Q43.11-13.43 43.11-14.36L43.11-14.36Q43.11-16.21 42.11-17.68 41.11-19.14 39.55-19.14ZM39.79-21.83L39.79-21.83Q44.19-21.83 46.85-18.77 49.51-15.72 49.51-12.55L49.51-12.55Q49.51-11.43 49.05-11.08 48.58-10.74 47.21-10.74L47.21-10.74 36.18-10.74Q35.89-10.74 35.89-10.4L35.89-10.4Q35.89-7.76 37.38-5.66 38.86-3.56 41.65-3.56L41.65-3.56Q43.26-3.56 44.72-4.03 46.19-4.49 46.77-4.86 47.36-5.22 48.34-5.96L48.34-5.96Q48.78-5.76 48.78-5.03L48.78-5.03Q48.78-4.44 48.58-4.05L48.58-4.05Q48.09-2.88 45.65-1.27 43.21 0.34 40.18 0.34L40.18 0.34Q35.69 0.34 32.44-2.93 29.2-6.2 29.2-10.79L29.2-10.79Q29.2-15.48 32.13-18.65 35.06-21.83 39.79-21.83ZM55.22-6.79L55.22-18.07 52.05-18.07Q51.66-18.07 51.66-19.58L51.66-19.58Q51.66-19.97 51.75-20.12L51.75-20.12Q54.49-21.48 56.15-22.75L56.15-22.75Q56.88-23.29 57.86-24.15 58.83-25 59.54-25.61 60.25-26.22 60.3-26.27L60.3-26.27Q60.69-26.27 61.13-26.1 61.57-25.93 61.57-25.73L61.57-25.73 61.57-20.95 66.84-20.95Q67.23-20.95 67.23-20.46L67.23-20.46Q67.23-19.04 66.74-18.07L66.74-18.07 61.57-18.07 61.57-6.49Q61.57-2.78 64.2-2.78L64.2-2.78Q64.94-2.78 65.55-2.95 66.16-3.13 66.5-3.32 66.84-3.52 66.89-3.52L66.89-3.52Q67.08-3.52 67.3-3.03 67.52-2.54 67.52-2.29L67.52-2.29Q67.52-1.71 65.52-0.68 63.52 0.34 61.76 0.34L61.76 0.34Q59.08 0.34 57.15-1.34 55.22-3.03 55.22-6.79L55.22-6.79ZM80.36-19.14L80.36-19.14Q78.46-19.14 77.58-17.31 76.7-15.48 76.7-13.72L76.7-13.72Q76.7-13.43 77.04-13.43L77.04-13.43 83.24-13.43Q83.93-13.43 83.93-14.36L83.93-14.36Q83.93-16.21 82.93-17.68 81.93-19.14 80.36-19.14ZM80.61-21.83L80.61-21.83Q85-21.83 87.66-18.77 90.32-15.72 90.32-12.55L90.32-12.55Q90.32-11.43 89.86-11.08 89.4-10.74 88.03-10.74L88.03-10.74 76.99-10.74Q76.7-10.74 76.7-10.4L76.7-10.4Q76.7-7.76 78.19-5.66 79.68-3.56 82.46-3.56L82.46-3.56Q84.07-3.56 85.54-4.03 87-4.49 87.59-4.86 88.18-5.22 89.15-5.96L89.15-5.96Q89.59-5.76 89.59-5.03L89.59-5.03Q89.59-4.44 89.4-4.05L89.4-4.05Q88.91-2.88 86.47-1.27 84.03 0.34 81 0.34L81 0.34Q76.51 0.34 73.26-2.93 70.01-6.2 70.01-10.79L70.01-10.79Q70.01-15.48 72.94-18.65 75.87-21.83 80.61-21.83ZM108.49-21.83L108.49-21.83Q110.63-21.83 112.69-20.02L112.69-20.02Q112.69-17.48 112.07-16.26 111.46-15.04 109.85-15.04L109.85-15.04Q108.88-15.04 107.61-16.16 106.34-17.29 105.36-17.29L105.36-17.29Q103.9-17.29 103.29-15.65 102.68-14.01 102.68-12.16L102.68-12.16 102.68-7.23Q102.68-4.15 103.02-2.83L103.02-2.83Q103.12-2.49 104.31-2.05 105.51-1.61 105.9-1.61L105.9-1.61Q106.04-1.61 106.07-0.81 106.09 0 106 0.2L106 0.2Q105.41 0.15 103.02-0.02 100.62-0.2 99.5-0.2L99.5-0.2Q98.33-0.2 95.84-0.02 93.35 0.15 92.81 0.2L92.81 0.2Q92.62 0 92.62-0.81 92.62-1.61 92.81-1.61L92.81-1.61Q93.35-1.61 94.62-2.05 95.89-2.49 95.99-2.83L95.99-2.83Q96.33-4.3 96.33-6.54L96.33-6.54 96.33-13.23Q96.33-15.97 95.45-16.89L95.45-16.89Q95.11-17.29 94.42-17.53 93.74-17.77 93.25-17.87 92.76-17.97 92.76-18.02L92.76-18.02Q92.76-19.73 93.01-19.73L93.01-19.73Q93.59-19.73 94.96-20 96.33-20.26 98.53-20.75 100.72-21.24 101.94-21.48L101.94-21.48Q102.43-21.63 102.48-21.63L102.48-21.63Q102.72-21.63 102.97-21.31 103.21-21 103.21-20.8L103.21-20.8Q103.12-20.21 103.07-19.53 103.02-18.85 102.97-18.65L102.97-18.65Q105.36-21.83 108.49-21.83Z" fill="#ffffff" data-fill-palette-color="primary"></path><path d="M131.54-32.03L131.54-32.03Q132.66-32.03 138.52-32.32L138.52-32.32Q138.62-32.13 138.59-31.32 138.57-30.52 138.42-30.52L138.42-30.52Q137.69-30.52 136.78-30.25 135.88-29.98 135.83-29.49L135.83-29.49Q135.83-29.1 136.22-28.42L136.22-28.42 141.11-19.78Q141.35-19.53 141.59-19.87L141.59-19.87Q143.01-21.92 144.96-25.29 146.92-28.66 146.92-29.44L146.92-29.44Q146.92-30.52 143.79-30.52L143.79-30.52Q143.6-30.52 143.57-31.32 143.55-32.13 143.74-32.32L143.74-32.32Q148.14-32.03 149.65-32.03L149.65-32.03Q150.92-32.03 155.17-32.32L155.17-32.32Q155.31-31.88 155.31-31.45L155.31-31.45Q155.31-30.57 155.12-30.57L155.12-30.57Q154.24-30.57 153.12-30.13 151.99-29.69 151.31-28.81L151.31-28.81Q150.04-27.1 146.4-21.29 142.77-15.48 142.77-14.84L142.77-14.84 142.77-7.08Q142.77-4.35 143.16-2.83L143.16-2.83Q143.25-2.49 144.5-2.05 145.74-1.61 146.18-1.61L146.18-1.61Q146.38-1.61 146.38-0.68L146.38-0.68Q146.38-0.1 146.28 0.2L146.28 0.2Q145.94 0.2 143.35 0 140.76-0.2 139.49-0.2L139.49-0.2Q138.18-0.2 135.64-0.02 133.1 0.15 132.41 0.2L132.41 0.2Q132.22 0 132.22-0.59L132.22-0.59Q132.22-1.61 132.37-1.61L132.37-1.61Q132.9-1.61 134.17-2.03 135.44-2.44 135.59-2.83L135.59-2.83Q135.93-4.15 135.93-6.79L135.93-6.79 135.93-15.09Q135.93-15.43 134.39-18.21 132.85-21 131.34-23.63L131.34-23.63 129.83-26.22Q128.21-29.2 127.19-29.79L127.19-29.79Q125.97-30.52 124.6-30.52L124.6-30.52Q124.41-30.52 124.41-31.32 124.41-32.13 124.6-32.32L124.6-32.32Q125.43-32.28 126.8-32.2 128.17-32.13 129.31-32.08 130.46-32.03 131.54-32.03ZM167.18-19.14L167.18-19.14Q165.27-19.14 164.39-17.31 163.52-15.48 163.52-13.72L163.52-13.72Q163.52-13.43 163.86-13.43L163.86-13.43 170.06-13.43Q170.74-13.43 170.74-14.36L170.74-14.36Q170.74-16.21 169.74-17.68 168.74-19.14 167.18-19.14ZM167.42-21.83L167.42-21.83Q171.82-21.83 174.48-18.77 177.14-15.72 177.14-12.55L177.14-12.55Q177.14-11.43 176.67-11.08 176.21-10.74 174.84-10.74L174.84-10.74 163.81-10.74Q163.52-10.74 163.52-10.4L163.52-10.4Q163.52-7.76 165-5.66 166.49-3.56 169.28-3.56L169.28-3.56Q170.89-3.56 172.35-4.03 173.82-4.49 174.4-4.86 174.99-5.22 175.97-5.96L175.97-5.96Q176.41-5.76 176.41-5.03L176.41-5.03Q176.41-4.44 176.21-4.05L176.21-4.05Q175.72-2.88 173.28-1.27 170.84 0.34 167.81 0.34L167.81 0.34Q163.32 0.34 160.07-2.93 156.83-6.2 156.83-10.79L156.83-10.79Q156.83-15.48 159.76-18.65 162.69-21.83 167.42-21.83ZM183.09-6.54L183.09-25.93Q183.09-28.22 182.85-29.44L182.85-29.44Q182.6-30.22 180.31-30.22L180.31-30.22 179.87-30.22Q179.58-30.22 179.58-31.2L179.58-31.2Q179.58-32.03 179.87-32.03L179.87-32.03Q181.38-32.18 182.92-32.42 184.46-32.67 185.53-32.91 186.61-33.15 187.46-33.4 188.32-33.64 188.81-33.79L188.81-33.79 189.29-33.94 189.39-33.94Q189.59-33.94 189.78-33.64 189.98-33.35 190.03-33.11L190.03-33.11Q189.49-30.91 189.49-28.17L189.49-28.17 189.44-7.28Q189.44-4.15 189.78-2.83L189.78-2.83Q189.88-2.49 191.15-2.05 192.42-1.61 192.86-1.61L192.86-1.61Q193-1.61 193.03-0.81 193.05 0 192.96 0.2L192.96 0.2Q192.42 0.15 189.9-0.02 187.39-0.2 186.27-0.2L186.27-0.2Q185.09-0.2 182.6-0.02 180.11 0.15 179.58 0.2L179.58 0.2Q179.38 0 179.38-0.81 179.38-1.61 179.58-1.61L179.58-1.61Q180.11-1.61 181.38-2.05 182.65-2.49 182.75-2.83L182.75-2.83Q183.09-4.3 183.09-6.54L183.09-6.54ZM199.15-6.79L199.15-18.07 195.98-18.07Q195.59-18.07 195.59-19.58L195.59-19.58Q195.59-19.97 195.69-20.12L195.69-20.12Q198.42-21.48 200.08-22.75L200.08-22.75Q200.81-23.29 201.79-24.15 202.77-25 203.48-25.61 204.18-26.22 204.23-26.27L204.23-26.27Q204.62-26.27 205.06-26.1 205.5-25.93 205.5-25.73L205.5-25.73 205.5-20.95 210.78-20.95Q211.17-20.95 211.17-20.46L211.17-20.46Q211.17-19.04 210.68-18.07L210.68-18.07 205.5-18.07 205.5-6.49Q205.5-2.78 208.14-2.78L208.14-2.78Q208.87-2.78 209.48-2.95 210.09-3.13 210.43-3.32 210.78-3.52 210.82-3.52L210.82-3.52Q211.02-3.52 211.24-3.03 211.46-2.54 211.46-2.29L211.46-2.29Q211.46-1.71 209.46-0.68 207.46 0.34 205.7 0.34L205.7 0.34Q203.01 0.34 201.08-1.34 199.15-3.03 199.15-6.79L199.15-6.79ZM224.74-19.14L224.74-19.14Q223.32-19.14 222.39-18.02 221.47-16.89 221.17-15.45 220.88-14.01 220.88-12.26L220.88-12.26Q220.88-2.34 225.91-2.34L225.91-2.34Q227.96-2.34 228.91-4.35 229.87-6.35 229.87-9.03L229.87-9.03Q229.87-19.14 224.74-19.14ZM217.29-18.6Q220.64-21.83 225.42-21.83 230.21-21.83 233.55-18.6 236.9-15.38 236.9-10.74 236.9-6.1 233.58-2.88 230.26 0.34 225.42 0.34L225.42 0.34Q220.64 0.34 217.29-2.88 213.95-6.1 213.95-10.74 213.95-15.38 217.29-18.6ZM257.11-21.78L257.11-21.78Q259.94-21.78 261.72-19.38 263.51-16.99 263.51-12.11L263.51-12.11 263.51-7.28Q263.51-4.15 263.85-2.83L263.85-2.83Q263.94-2.49 265.21-2.05 266.48-1.61 266.92-1.61L266.92-1.61Q267.07-1.61 267.09-0.81 267.12 0 267.02 0.2L267.02 0.2Q266.48 0.15 263.97-0.02 261.45-0.2 260.33-0.2L260.33-0.2Q259.16-0.2 256.79-0.02 254.42 0.15 253.84 0.2L253.84 0.2Q253.64 0 253.64-0.81 253.64-1.61 253.84-1.61L253.84-1.61Q254.37-1.61 255.55-2.05 256.72-2.49 256.82-2.83L256.82-2.83Q257.16-4.3 257.16-6.54L257.16-6.54 257.16-10.94Q257.16-14.55 256.16-16.09 255.16-17.63 252.96-17.63L252.96-17.63Q251.44-17.63 250.52-17.07 249.59-16.5 249.59-15.48L249.59-15.48 249.59-7.28Q249.59-4.15 249.93-2.83L249.93-2.83Q250.03-2.49 251.22-2.05 252.42-1.61 252.81-1.61L252.81-1.61Q252.96-1.61 252.98-0.81 253.01 0 252.91 0.2L252.91 0.2Q252.32 0.15 249.93-0.02 247.54-0.2 246.42-0.2L246.42-0.2Q245.24-0.2 242.75-0.02 240.26 0.15 239.73 0.2L239.73 0.2Q239.53 0 239.53-0.81 239.53-1.61 239.73-1.61L239.73-1.61Q240.26-1.61 241.53-2.05 242.8-2.49 242.9-2.83L242.9-2.83Q243.24-4.3 243.24-6.54L243.24-6.54 243.24-13.23Q243.24-15.97 242.36-16.89L242.36-16.89Q242.02-17.29 241.34-17.53 240.65-17.77 240.17-17.87 239.68-17.97 239.68-18.02L239.68-18.02Q239.68-19.73 239.92-19.73L239.92-19.73Q240.51-19.73 241.87-20 243.24-20.26 245.44-20.75 247.64-21.24 248.86-21.48L248.86-21.48Q248.95-21.48 249.08-21.53 249.2-21.58 249.3-21.58L249.3-21.58 249.39-21.63Q249.64-21.63 249.88-21.31 250.13-21 250.13-20.8L250.13-20.8Q249.93-19.43 249.93-19.29L249.93-19.29Q249.93-19.04 249.98-18.99L249.98-18.99Q250.08-18.99 250.32-19.24L250.32-19.24Q253.06-21.78 257.11-21.78Z" fill="#81ffd9" data-fill-palette-color="secondary"></path></g></svg></g></svg></g></svg></g></svg></g><g><svg viewBox="0 0 70.12926114482052 70.12926114482052" height="70.12926114482052" width="70.12926114482052"><g><svg xmlns="http://www.w3.org/2000/svg" xmlns:xlink="http://www.w3.org/1999/xlink" version="1.1" x="0" y="0" viewBox="2 2 60 60" enable-background="new 0 0 64 64" xml:space="preserve" height="70.12926114482052" width="70.12926114482052" class="icon-icon-0" data-fill-palette-color="accent" id="icon-0"><g fill="#81ffd9" data-fill-palette-color="accent"><path d="M19 9V3c0-0.552-0.448-1-1-1s-1 0.448-1 1v6c0 0.552 0.448 1 1 1S19 9.552 19 9z" fill="#81ffd9" data-fill-palette-color="accent"></path><path d="M26 9V3c0-0.552-0.448-1-1-1s-1 0.448-1 1v6c0 0.552 0.448 1 1 1S26 9.552 26 9z" fill="#81ffd9" data-fill-palette-color="accent"></path><path d="M33 9V3c0-0.552-0.448-1-1-1s-1 0.448-1 1v6c0 0.552 0.448 1 1 1S33 9.552 33 9z" fill="#81ffd9" data-fill-palette-color="accent"></path><path d="M40 9V3c0-0.552-0.448-1-1-1s-1 0.448-1 1v6c0 0.552 0.448 1 1 1S40 9.552 40 9z" fill="#81ffd9" data-fill-palette-color="accent"></path><path d="M47 9V3c0-0.552-0.448-1-1-1s-1 0.448-1 1v6c0 0.552 0.448 1 1 1S47 9.552 47 9z" fill="#81ffd9" data-fill-palette-color="accent"></path><path d="M19 61v-6c0-0.552-0.448-1-1-1s-1 0.448-1 1v6c0 0.552 0.448 1 1 1S19 61.552 19 61z" fill="#81ffd9" data-fill-palette-color="accent"></path><path d="M26 61v-6c0-0.552-0.448-1-1-1s-1 0.448-1 1v6c0 0.552 0.448 1 1 1S26 61.552 26 61z" fill="#81ffd9" data-fill-palette-color="accent"></path><path d="M33 61v-6c0-0.552-0.448-1-1-1s-1 0.448-1 1v6c0 0.552 0.448 1 1 1S33 61.552 33 61z" fill="#81ffd9" data-fill-palette-color="accent"></path><path d="M40 61v-6c0-0.552-0.448-1-1-1s-1 0.448-1 1v6c0 0.552 0.448 1 1 1S40 61.552 40 61z" fill="#81ffd9" data-fill-palette-color="accent"></path><path d="M47 61v-6c0-0.552-0.448-1-1-1s-1 0.448-1 1v6c0 0.552 0.448 1 1 1S47 61.552 47 61z" fill="#81ffd9" data-fill-palette-color="accent"></path><path d="M10 46c0-0.552-0.448-1-1-1H3c-0.552 0-1 0.448-1 1s0.448 1 1 1h6C9.552 47 10 46.552 10 46z" fill="#81ffd9" data-fill-palette-color="accent"></path><path d="M3 40h6c0.552 0 1-0.448 1-1s-0.448-1-1-1H3c-0.552 0-1 0.448-1 1S2.448 40 3 40z" fill="#81ffd9" data-fill-palette-color="accent"></path><path d="M3 33h6c0.552 0 1-0.448 1-1s-0.448-1-1-1H3c-0.552 0-1 0.448-1 1S2.448 33 3 33z" fill="#81ffd9" data-fill-palette-color="accent"></path><path d="M3 26h6c0.552 0 1-0.448 1-1s-0.448-1-1-1H3c-0.552 0-1 0.448-1 1S2.448 26 3 26z" fill="#81ffd9" data-fill-palette-color="accent"></path><path d="M3 19h6c0.552 0 1-0.448 1-1s-0.448-1-1-1H3c-0.552 0-1 0.448-1 1S2.448 19 3 19z" fill="#81ffd9" data-fill-palette-color="accent"></path><path d="M61 24h-6c-0.552 0-1 0.448-1 1s0.448 1 1 1h6c0.552 0 1-0.448 1-1S61.552 24 61 24z" fill="#81ffd9" data-fill-palette-color="accent"></path><path d="M61 17h-6c-0.552 0-1 0.448-1 1s0.448 1 1 1h6c0.552 0 1-0.448 1-1S61.552 17 61 17z" fill="#81ffd9" data-fill-palette-color="accent"></path><path d="M31.29 31.29C31.11 31.48 31 31.74 31 32c0 0.26 0.11 0.52 0.29 0.71C31.48 32.89 31.74 33 32 33c0.26 0 0.52-0.11 0.71-0.29C32.89 32.52 33 32.26 33 32c0-0.26-0.11-0.52-0.29-0.71C32.33 30.92 31.67 30.92 31.29 31.29z" fill="#81ffd9" data-fill-palette-color="accent"></path><path d="M25.29 31.29C25.11 31.48 25 31.73 25 32s0.11 0.52 0.29 0.71C25.48 32.89 25.74 33 26 33c0.26 0 0.52-0.11 0.71-0.29C26.89 32.52 27 32.26 27 32c0-0.26-0.11-0.52-0.29-0.71C26.34 30.92 25.66 30.92 25.29 31.29z" fill="#81ffd9" data-fill-palette-color="accent"></path><path d="M52 26.367V13c0-0.552-0.448-1-1-1H13c-0.552 0-1 0.448-1 1v38c0 0.552 0.448 1 1 1h36c0.007 0 0.013 0 0.02 0 0.002 0 0.003-0.001 0.005-0.001 0.708-0.001 1.428-0.063 2.138-0.183 2.427-0.402 4.676-1.482 6.502-3.12 0.732-0.654 1.37-1.369 1.882-2.107C61.152 44.39 62 41.766 62 39c0-2.748-0.843-5.371-2.439-7.585C57.733 28.88 55.009 27.081 52 26.367zM14 50V14h36v12.04c-0.042-0.003-0.084-0.001-0.127-0.004-0.111-0.008-0.221-0.008-0.332-0.013-0.314-0.013-0.627-0.018-0.938-0.008-0.134 0.004-0.266 0.011-0.399 0.019-0.3 0.018-0.597 0.047-0.892 0.086-0.104 0.014-0.209 0.021-0.313 0.037V18c0-0.552-0.448-1-1-1H28c-0.265 0-0.52 0.105-0.707 0.293l-10 10C17.105 27.48 17 27.735 17 28v18c0 0.552 0.448 1 1 1h20.753c0.167 0.213 0.345 0.431 0.55 0.666 0.385 0.432 0.802 0.831 1.239 1.206 0.146 0.125 0.305 0.23 0.456 0.348 0.303 0.237 0.607 0.471 0.93 0.68 0.048 0.031 0.089 0.07 0.138 0.101H14zM43.538 27.209c-0.078 0.036-0.156 0.071-0.232 0.109-0.445 0.216-0.876 0.458-1.293 0.724-0.072 0.046-0.144 0.094-0.215 0.142-0.418 0.278-0.822 0.578-1.208 0.904-0.049 0.042-0.095 0.086-0.143 0.128-0.401 0.351-0.787 0.721-1.147 1.122-0.477 0.54-0.841 1.016-1.13 1.475C36.75 33.925 36 36.41 36 39c0 0.473 0.034 0.939 0.083 1.402 0.011 0.11 0.023 0.219 0.038 0.328 0.06 0.456 0.137 0.907 0.244 1.349 0.01 0.043 0.024 0.085 0.036 0.128 0.103 0.411 0.23 0.814 0.374 1.211 0.035 0.096 0.068 0.192 0.105 0.288 0.164 0.423 0.347 0.838 0.556 1.243 0.009 0.017 0.014 0.035 0.023 0.051H19V28.414L28.414 19H45v7.629c-0.02 0.006-0.037 0.016-0.057 0.022C44.462 26.809 43.995 26.998 43.538 27.209zM57.919 45.43c-0.436 0.628-0.969 1.225-1.587 1.776-1.544 1.386-3.445 2.298-5.499 2.639-0.939 0.158-1.873 0.193-2.787 0.115-0.045-0.004-0.09-0.013-0.136-0.018-0.367-0.036-0.729-0.094-1.088-0.167-0.107-0.021-0.214-0.044-0.321-0.07-0.396-0.093-0.789-0.201-1.172-0.338-1.736-0.606-3.304-1.654-4.527-3.024-0.258-0.295-0.508-0.6-0.742-0.929-0.109-0.15-0.208-0.307-0.308-0.462-0.066-0.102-0.136-0.203-0.199-0.308-0.083-0.138-0.158-0.28-0.235-0.422-0.057-0.105-0.118-0.209-0.171-0.316-0.073-0.146-0.137-0.296-0.204-0.445-0.047-0.106-0.098-0.212-0.142-0.32-0.063-0.153-0.115-0.31-0.17-0.466-0.039-0.108-0.081-0.215-0.116-0.325-0.05-0.159-0.091-0.32-0.134-0.481-0.03-0.11-0.064-0.219-0.09-0.331-0.04-0.17-0.069-0.343-0.101-0.515-0.02-0.105-0.044-0.209-0.06-0.315-0.03-0.194-0.048-0.39-0.068-0.586-0.009-0.087-0.023-0.173-0.03-0.26C38.011 39.576 38 39.289 38 39c0-2.191 0.633-4.291 1.845-6.095 0.247-0.39 0.55-0.785 0.949-1.237 1.459-1.628 3.346-2.776 5.458-3.32 0.408-0.106 0.826-0.182 1.248-0.24 0.135-0.019 0.272-0.026 0.408-0.04 0.29-0.028 0.581-0.049 0.875-0.055 0.225-0.004 0.45-0.004 0.676 0.006 0.101 0.004 0.2 0.006 0.301 0.013 0.351 0.024 0.703 0.062 1.054 0.121 0.007 0.001 0.014 0.002 0.021 0.003 2.824 0.471 5.413 2.085 7.104 4.428C59.287 34.456 60 36.674 60 39 60 41.339 59.285 43.556 57.919 45.43z" fill="#81ffd9" data-fill-palette-color="accent"></path><path d="M49 30c-0.552 0-1 0.448-1 1v9c0 0.552 0.448 1 1 1s1-0.448 1-1v-9C50 30.448 49.552 30 49 30z" fill="#81ffd9" data-fill-palette-color="accent"></path><path d="M49 44c-0.552 0-1 0.448-1 1v1c0 0.552 0.448 1 1 1s1-0.448 1-1v-1C50 44.448 49.552 44 49 44z" fill="#81ffd9" data-fill-palette-color="accent"></path></g></svg></g></svg></g></svg></g><defs></defs></svg><rect width="395.52" height="56.12784938789939" fill="none" stroke="none" visibility="hidden"></rect></g></svg></g></svg>